<svg xmlns="http://www.w3.org/2000/svg" viewBox="0 0 16.5 16.5"><defs><style>.cls-1{fill:none;stroke:#9D9D9D;stroke-linecap:round;stroke-linejoin:round;stroke-width:1.5px;}</style></defs><title>Asset 8</title><g id="Layer_2" data-name="Layer 2"><g id="Layer_1-2" data-name="Layer 1"><circle class="cls-1" cx="8.25" cy="8.25" r="2.05"/><path class="cls-1" d="M13.3,10.3a1.13,1.13,0,0,0,.23,1.24l0,0a1.36,1.36,0,1,1-1.93,1.93l0,0a1.13,1.13,0,0,0-1.92.8v.12a1.36,1.36,0,1,1-2.73,0v-.06a1.12,1.12,0,0,0-.74-1A1.12,1.12,0,0,0,5,13.52l0,0A1.36,1.36,0,1,1,3,11.63l0,0a1.13,1.13,0,0,0-.8-1.92H2.11a1.36,1.36,0,1,1,0-2.73h.06a1.12,1.12,0,0,0,1-.74A1.13,1.13,0,0,0,3,5l0,0A1.36,1.36,0,1,1,4.87,3l0,0a1.12,1.12,0,0,0,1.24.22H6.2a1.13,1.13,0,0,0,.68-1V2.11a1.36,1.36,0,0,1,2.73,0v.06a1.13,1.13,0,0,0,1.92.8l0,0a1.36,1.36,0,1,1,1.93,1.93l0,0a1.13,1.13,0,0,0-.23,1.24V6.2a1.12,1.12,0,0,0,1,.68h.12a1.36,1.36,0,0,1,0,2.73h-.06a1.12,1.12,0,0,0-1,.68Z"/></g></g></svg>