<svg xmlns="http://www.w3.org/2000/svg" viewBox="0 0 841.34 908.22"><defs><style>.cls-1{fill:none;stroke:#fff;opacity:0.3;}</style></defs><title>Asset 2</title><g id="Layer_2" data-name="Layer 2"><g id="Layer_1-2" data-name="Layer 1"><path class="cls-1" d="M28.21,666.48C-5.31,619.69-34.78,565.24,107,482s175.46-6.76,240.74-58.5,18-168.74,128.24-209.24S606.43.52,606.43.52l166.49,9s45.56,120.37-9,204.74S579.73,271.16,554.68,347s56.54,79.43,81.41,135S674,730.33,522,776.45,61.74,713.28,28.21,666.48Z"/><path class="cls-1" d="M78.31,786.63c-33.52-46.8-63-101.24,78.74-184.49s175.46-6.76,240.74-58.5,18-168.74,128.24-209.24S656.52,120.67,656.52,120.67l166.49,9S868.57,250,814,334.41s-184.19,56.9-209.24,132.74,56.54,79.43,81.41,135,37.9,248.34-114.07,294.46S111.83,833.43,78.31,786.63Z"/></g></g></svg>