<svg xmlns="http://www.w3.org/2000/svg" viewBox="0 0 17 17"><defs><style>.cls-1{fill:#9D9D9D;}</style></defs><title>Asset 14</title><g id="Layer_2" data-name="Layer 2"><g id="Layer_1-2" data-name="Layer 1"><path class="cls-1" d="M14.16,7.08a.71.71,0,0,1,.71-.71h1.42a.71.71,0,0,1,0,1.42H14.87A.71.71,0,0,1,14.16,7.08Zm.08-2.51a.71.71,0,0,1,.32-1L16,2.91a.71.71,0,1,1,.63,1.27l-1.42.71A.71.71,0,0,1,14.24,4.57Zm2.68,6.37a.71.71,0,0,1-1,.32l-1.42-.71a.71.71,0,1,1,.63-1.27l1.42.71a.71.71,0,0,1,.32.95Zm-5.59-.6A5.47,5.47,0,0,0,7.79,9.21h-5A1.42,1.42,0,0,1,1.42,7.79V6.37A1.42,1.42,0,0,1,2.83,5h5a5.47,5.47,0,0,0,3.54-1.13Zm-5,4.26a.7.7,0,0,1-.64,1,.87.87,0,0,1-.8-.52l-2-4.44H4.5ZM12,0a.71.71,0,0,0-.71.71c0,2.09-1.83,2.83-3.54,2.83h-5A2.83,2.83,0,0,0,0,6.37V7.79A2.82,2.82,0,0,0,1.07,10L3.6,15.64A2.29,2.29,0,0,0,5.69,17a2.11,2.11,0,0,0,1.93-3l-1.56-3.4H7.79c1.71,0,3.54.74,3.54,2.83a.71.71,0,1,0,1.42,0V.71A.71.71,0,0,0,12,0Z"/></g></g></svg>